<svg width="1136" height="648" viewBox="0 0 1136 648" fill="none" xmlns="http://www.w3.org/2000/svg">
<g id="travel 2">
<g clip-path="url(#clip0)">
<path id="Sun" d="M248 300.523C295.496 300.523 334 262.019 334 214.523C334 167.026 295.496 128.523 248 128.523C200.504 128.523 162 167.026 162 214.523C162 262.019 200.504 300.523 248 300.523Z" fill="#FF6584"/>
<path id="Vector" d="M1100.4 611.792C1095.34 616.343 1090.02 620.594 1084.47 624.522C1071.29 633.793 1057.04 641.451 1042.04 647.332C979.69 645.832 888.03 638.182 772.33 634.102C763.7 631.153 754.873 627.959 745.85 624.522C733.91 619.972 721.627 614.972 709 609.522C656.56 586.862 602.72 572.132 549.39 563.332C537.93 561.442 526.5 559.822 515.1 558.472C274.28 529.672 52.2 614.292 26.48 624.523H24L39.82 593.883L309 72.5225L371.95 234.143L392.04 285.733L447.41 209.753L476 170.523L606.2 319.793L643 238.523L897.78 446.443L911.99 458.033L926.37 469.773L930.95 473.513L1067.16 584.672L1100.4 611.792Z" fill="#6F4A7C"/>
<path id="Vector_2" opacity="0.1" d="M285 177.523L311 120.523L347 203.523L316 143.523L285 177.523Z" fill="black"/>
<path id="Vector_3" opacity="0.1" d="M549.39 563.333C537.93 561.443 526.5 559.823 515.1 558.473L392.04 285.732L549.39 563.333Z" fill="black"/>
<path id="Vector_4" opacity="0.1" d="M447.411 209.752L476 187.523L606 337.523L474 209.523L447.411 209.752Z" fill="black"/>
<path id="Vector_5" opacity="0.1" d="M606.197 319.789L866 568.523L830.464 576.904L606.197 319.789Z" fill="black"/>
<path id="Vector_6" d="M1136 625.023C1136 644.393 1103.04 648.803 1042.04 647.333C979.69 645.833 888.03 638.182 772.33 634.102C728.57 632.562 681.36 631.523 631 631.523C317.3 631.523 0 671.693 0 625.023C0 614.023 14.12 603.523 39.82 593.883C116.02 565.303 294 544.372 507.22 541.002C516.92 540.842 526.69 540.726 536.53 540.653C546.95 540.563 557.44 540.519 568 540.523C652.77 540.523 733.21 543.282 805.46 548.232C805.69 548.252 805.91 548.272 806.14 548.283C811.94 548.683 817.683 549.096 823.37 549.523C829.58 549.993 835.723 550.476 841.8 550.973C843.05 551.073 844.3 551.172 845.54 551.283C846.44 551.352 847.34 551.433 848.23 551.513C849.87 551.643 851.51 551.783 853.13 551.933C853.187 551.931 853.244 551.934 853.3 551.943C856.28 552.203 859.24 552.463 862.18 552.723C862.49 552.753 862.8 552.783 863.11 552.802C948.56 560.552 1019.18 571.562 1067.16 584.672C1111.06 596.663 1136 610.403 1136 625.023Z" fill="#3F3D56"/>
<path id="Vector_7" d="M70.8867 458.182C70.8867 522.198 111.047 573.999 160.678 573.999Z" fill="#3F3D56"/>
<path id="Vector_8" d="M160.678 573.999C160.678 509.264 205.494 456.881 260.879 456.881Z" fill="#6C63FF"/>
<path id="Vector_9" d="M103.42 463.985C103.42 524.794 129.029 573.999 160.678 573.999Z" fill="#6C63FF"/>
<path id="Vector_10" d="M160.678 573.999C160.678 491.282 212.479 424.348 276.495 424.348Z" fill="#3F3D56"/>
<path id="Vector_11" d="M141.788 574.816C141.788 574.816 154.522 574.423 158.359 571.691C162.197 568.958 177.947 565.695 178.899 570.078C179.851 574.46 198.036 591.875 183.659 591.991C169.283 592.107 150.255 589.752 146.425 587.419C142.594 585.086 141.788 574.816 141.788 574.816Z" fill="#A8A8A8"/>
<path id="Vector_12" opacity="0.2" d="M183.916 590.466C169.54 590.582 150.512 588.226 146.681 585.893C143.764 584.116 142.602 577.741 142.213 574.799C141.944 574.811 141.788 574.816 141.788 574.816C141.788 574.816 142.594 585.086 146.425 587.419C150.255 589.752 169.283 592.107 183.659 591.991C187.809 591.958 189.243 590.481 189.164 588.295C188.587 589.616 187.005 590.441 183.916 590.466Z" fill="black"/>
<path id="Vector_13" d="M601.544 48.4917C598.231 48.5496 590.648 42.9959 585.934 39.2624C588.109 37.2514 590.459 35.4396 592.957 33.8486C596.757 36.7653 603.522 41.4881 607.283 41.3199C612.71 41.0769 606.526 48.4055 601.544 48.4917Z" fill="#F2F2F2"/>
<g id="Airplane">
<path id="PlaneBody" d="M1097.19 129.367C1092.33 131.16 1083.81 132.627 1073.94 133.811C1047.1 137.031 1010.31 138.175 1010.31 138.175C1010.31 138.175 821.29 153.854 679.609 95.544C679.609 95.544 659.001 84.7376 678.144 70.2005C681.085 68.0249 684.213 66.1148 687.492 64.4927C687.492 64.4927 687.571 64.4122 687.728 64.2624C689.902 62.2514 692.253 60.4396 694.751 58.8486C702.09 54.1046 714.485 48.476 729.567 51.0253L1101.66 111.212C1101.66 111.212 1115.25 122.695 1097.19 129.367Z" fill="#3F3D56"/>
<path id="Wing1" d="M1018.5 230.532L973.957 232.86L848.737 148.42L825.49 132.744L814.192 125.125C835.379 107.218 921.808 131.908 921.808 131.908C923.463 133.305 923.989 135.625 923.913 138.187C923.771 142.989 921.516 148.641 920.646 150.653C920.437 151.138 920.309 151.41 920.309 151.41L1018.5 230.532Z" fill="#3F3D56"/>
<path id="PlaneWindow" d="M703.338 73.4917C700.025 73.5496 692.442 67.9959 687.728 64.2624C689.902 62.2514 692.253 60.4396 694.751 58.8486C698.551 61.7653 705.316 66.4881 709.076 66.3199C714.504 66.0769 708.32 73.4055 703.338 73.4917Z" fill="#DD51B6"/>
<path id="sideFin" d="M1048.99 132.616L1118.37 160.94L1135.79 159.005L1094.3 127.82C1094.3 127.82 1044.11 117.117 1048.99 132.616Z" fill="#3F3D56"/>
<path id="PlaneUnderbelly" d="M1073.94 133.811C1047.1 137.031 1010.31 138.175 1010.31 138.175C1010.31 138.175 821.29 153.854 679.609 95.544C679.609 95.544 659.001 84.7376 678.144 70.2005L678.209 70.4662C678.209 70.4662 708.778 91.1279 854.845 108.38L1073.94 133.811Z" fill="#FF6086"/>
<path id="Wing2" d="M826.923 68.517L982.088 25L1007.1 30.226L937.01 61.756L915.1 86.264L826.923 68.517Z" fill="#3F3D56"/>
<path id="TopFin" d="M1023.04 102.092L1100.94 46.8212L1135.28 52.7589L1101.66 111.211C1101.66 111.211 1023.94 111.829 1023.04 102.092Z" fill="#AF5168"/>
</g>
<g id="Person">
<path id="hair" d="M496.575 250.174C490.826 251.972 486.534 256.668 482.534 261.17C480.979 262.762 479.659 264.568 478.616 266.534C477.599 269.041 477.063 271.716 477.033 274.42C476.767 278.612 476.681 282.81 476.778 287.014C476.87 291.041 477.117 295.169 475.879 299.003C474.682 302.709 472.19 305.842 470.479 309.34C467.749 314.921 467.119 321.694 469.639 327.373C471.026 330.498 473.271 333.159 474.948 336.139C477.914 341.446 479.013 347.596 478.068 353.602L485.957 343.382C491.01 336.837 496.222 329.94 497.644 321.794C499.706 309.979 493.403 298.406 492.159 286.477C491.813 283.151 491.929 279.558 493.812 276.794C496.591 272.714 502.636 271.273 504.307 266.628C504.549 268.573 516.202 274.768 517.605 273.563C518.468 275.892 518.719 278.404 518.334 280.858C517.948 283.312 516.94 285.626 515.404 287.578C514.276 288.978 512.889 290.157 511.789 291.579C508.94 295.263 508.292 300.23 508.694 304.87C509.096 309.51 510.432 314.016 511.138 318.619C511.735 323.203 512.02 327.822 511.991 332.444C512.044 335.643 511.956 339.214 509.712 341.495C513.392 340.205 516.754 338.145 519.573 335.452C521.103 333.786 522.747 332.228 524.491 330.79C528.02 328.244 532.802 327.488 535.681 324.225C538.251 321.312 538.661 317.038 538.057 313.2C537.453 309.362 535.981 305.711 535.24 301.897C534.304 297.046 534.566 292.04 536.003 287.313C537.051 283.879 538.723 280.57 538.928 276.986C539.345 269.677 533.709 263.563 528.29 258.639C520.172 251.263 507.6 246.727 496.575 250.174Z" fill="#2F2E41"/>
<path id="Vector_14" opacity="0.1" d="M542.041 321.955C542.041 321.955 540.672 315.655 542.315 319.49C543.959 323.325 556.011 369.892 545.054 397.832C545.054 397.832 543.959 432.346 542.863 432.346C541.767 432.346 528.619 431.798 529.167 427.963C529.715 424.128 530.81 362.222 530.81 358.387C530.81 354.552 532.728 329.625 532.728 329.625L542.041 321.955Z" fill="black"/>
<path id="arm" d="M539.576 312.368C541.332 314.547 542.804 316.941 543.959 319.49C545.602 323.325 557.655 369.892 546.698 397.832C546.698 397.832 545.602 432.346 544.506 432.346C543.411 432.346 530.262 431.798 530.81 427.963C531.358 424.128 532.454 362.222 532.454 358.387C532.454 354.552 529.167 328.804 529.167 328.804L539.576 312.368Z" fill="#575A89"/>
<path id="foot" d="M527.523 558.35C527.523 558.35 517.662 562.733 519.854 568.211C522.045 573.69 529.167 581.36 530.263 589.577C531.358 597.795 540.671 604.917 547.246 600.534C553.82 596.151 546.15 587.386 546.15 587.386C546.15 587.386 537.932 572.046 537.384 568.759C536.837 565.472 538.48 562.185 535.193 561.089C531.906 559.994 527.523 558.35 527.523 558.35Z" fill="#2F2E41"/>
<path id="foot2" d="M508.373 570.97C508.373 570.97 517.456 573.565 516.807 579.404C516.604 581.101 515.958 582.714 514.933 584.081C513.908 585.447 512.54 586.52 510.968 587.189C510.017 587.807 509.266 588.688 508.805 589.724C508.345 590.761 508.195 591.908 508.373 593.028C509.022 596.921 503.183 602.76 493.451 600.165C483.72 597.57 485.666 594.975 485.666 594.975C486.196 592.096 487.824 589.537 490.207 587.838C494.1 585.243 498.641 576.16 498.641 575.511C498.641 574.863 499.939 570.321 499.939 570.321C499.939 570.321 505.129 567.077 508.373 570.97Z" fill="#2F2E41"/>
<path id="hand" d="M532.454 425.772C532.454 425.772 520.949 463.573 532.454 461.93C543.959 460.286 541.219 424.676 541.219 424.676L532.454 425.772Z" fill="#FFB9B9"/>
<path id="sideone" d="M506.705 338.117C506.705 338.117 511.636 326.612 508.897 318.942C508.897 318.942 511.636 318.394 512.732 316.751C513.827 315.107 512.732 306.89 515.471 306.342C518.21 305.794 538.48 306.342 539.576 307.438C540.672 308.533 543.959 316.203 543.959 316.203H542.315L530.263 335.926C530.263 335.926 536.289 373.179 535.193 379.205C534.097 385.231 551.081 410.432 553.272 412.076C555.463 413.719 565.325 440.016 560.942 442.755C556.559 445.494 518.21 463.025 516.566 454.26C514.923 445.494 503.418 392.901 503.418 392.901C503.418 392.901 502.87 363.866 504.514 356.744C506.157 349.622 506.705 338.117 506.705 338.117Z" fill="#575A89"/>
<path id="sidetwo" d="M504.514 338.117C504.514 338.117 494.653 307.985 491.366 307.438C488.079 306.89 478.765 313.464 478.765 313.464C478.765 313.464 465.069 317.847 465.069 320.586C465.069 323.325 467.26 323.325 467.26 323.325L474.93 338.117C474.93 338.117 478.217 351.265 477.122 360.031C476.461 365.299 476.278 370.617 476.574 375.918C476.574 375.918 464.521 448.234 470.548 450.425C476.574 452.616 476.574 454.808 476.574 454.808C476.574 454.808 485.339 459.738 486.983 457.547C488.626 455.356 504.514 361.126 504.514 361.126C504.514 361.126 512.732 345.239 504.514 338.117Z" fill="#575A89"/>
<path id="torso" d="M491.913 322.229C491.913 322.229 497.94 330.995 505.61 324.969C513.279 318.942 517.662 318.394 517.662 318.394L526.975 323.873L524.784 345.239L528.071 404.406C528.071 404.406 488.079 407.693 485.887 403.31C483.696 398.927 488.626 380.301 488.626 380.301L481.504 340.308V322.229H491.913Z" fill="#6C63FF"/>
<path id="face" d="M508.075 298.946C516.849 298.946 523.962 291.833 523.962 283.058C523.962 274.284 516.849 267.171 508.075 267.171C499.3 267.171 492.187 274.284 492.187 283.058C492.187 291.833 499.3 298.946 508.075 298.946Z" fill="#FFB9B9"/>
<path id="legs" d="M487.836 398.096C487.836 398.096 474.688 436.445 477.427 454.524C480.167 472.602 491.123 558.614 491.123 558.614C491.123 558.614 503.724 566.832 511.394 557.518L505.915 484.107C505.915 484.107 507.011 439.732 511.394 444.115C515.776 448.497 532.76 499.995 532.76 499.995L529.472 546.561C529.472 546.561 531.116 560.805 540.977 554.779L554.673 503.282C554.673 503.282 550.291 434.253 548.099 431.514C545.908 428.775 531.664 397 531.664 397L487.836 398.096Z" fill="#2F2E41"/>
<path id="ankle" d="M529.167 549.585L525.88 559.446L536.289 564.924L536.837 556.707L529.167 549.585Z" fill="#FFB9B9"/>
<path id="ankle2" d="M497.94 563.829L499.583 573.142L509.445 570.951L507.253 561.637L497.94 563.829Z" fill="#FFB9B9"/>
<path id="neck" opacity="0.1" d="M496.844 288.263C496.844 288.263 495.748 312.368 488.079 314.012C480.409 315.655 495.201 343.595 495.201 343.595L518.21 341.404L523.688 308.533C523.688 308.533 511.088 306.342 515.471 289.359L496.844 288.263Z" fill="black"/>
<path id="neckshadow" d="M496.844 288.263C496.844 288.263 495.748 312.368 488.079 314.012C480.409 315.655 495.201 343.595 495.201 343.595L518.21 341.404L523.688 308.533C523.688 308.533 511.088 306.342 515.471 289.359L496.844 288.263Z" fill="#FFB9B9"/>
<path id="armtwo" opacity="0.1" d="M467.808 320.586C467.808 320.586 456.304 429.607 459.591 431.25C462.878 432.894 471.643 435.085 473.287 433.442C474.93 431.798 481.504 364.413 481.504 364.413L476.574 329.351L467.808 320.586Z" fill="black"/>
<path id="armshadow" d="M467.808 320.586C467.808 320.586 456.304 429.607 459.591 431.25C462.878 432.894 471.643 435.085 473.287 433.442C474.93 431.798 481.504 364.413 481.504 364.413L476.574 329.351L467.808 320.586Z" fill="#575A89"/>
<path id="handtwo" d="M461.234 429.059C461.234 429.059 455.756 460.834 465.617 461.93C475.478 463.025 466.713 427.963 466.713 427.963L461.234 429.059Z" fill="#FFB9B9"/>
</g>
</g>
</g>
<defs>
<clipPath id="clip0">
<rect width="1136" height="647.595" fill="white"/>
</clipPath>
</defs>
</svg>
